<?xml version="1.0" encoding="UTF-8"?>
<svg width="35px" height="38px" viewBox="0 0 35 38" version="1.1" xmlns="http://www.w3.org/2000/svg" xmlns:xlink="http://www.w3.org/1999/xlink">
    <!-- Generator: Sketch 51.3 (57544) - http://www.bohemiancoding.com/sketch -->
    <title>用户头像</title>
    <desc>Created with Sketch.</desc>
    <defs>
        <ellipse id="path-1" cx="15.3387709" cy="15.3157853" rx="15.0820243" ry="15.0620305"></ellipse>
    </defs>
    <g id="Page-1" stroke="none" stroke-width="1" fill="none" fill-rule="evenodd">
        <g id="师傅位置--copy" transform="translate(-319.000000, -358.000000)">
            <g id="用户头像" transform="translate(319.000000, 358.000000)">
                <g id="登录页面-拾取坐标-copy-2" transform="translate(-0.000000, 0.000000)">
                    <path d="M17.3425567,0 C12.5317957,0 8.19480304,1.92808353 5.06691356,5.0633072 C-0.822482855,10.9343609 -1.66439193,20.2853747 2.99579466,27.0833493 C4.89433911,29.8627611 7.56960384,32.0605287 10.7089442,33.3533014 L16.2425974,37.4445778 C16.8573376,38.0910092 17.8392267,38.0910092 18.4107331,37.4661436 L23.9454232,33.3533014 C27.094321,32.0605287 29.7695858,29.8628061 31.6681753,27.0833493 C36.3283168,20.2853747 35.4874446,10.9343609 29.6085523,5.0633072 C26.4585725,1.92808353 22.1216249,0 17.3425567,0 Z" id="Shape" fill="#FF5C5C" fill-rule="nonzero"></path>
                    <g id="IMG_8864" transform="translate(2.000000, 2.000000)">
                        <mask id="mask-2" fill="white">
                            <use xlink:href="#path-1"></use>
                        </mask>
                        <use id="Mask" fill="#FFFFFF" xlink:href="#path-1"></use>
                    </g>
                </g>
                <g id="家" transform="translate(8.000000, 8.000000)" fill-rule="nonzero">
                    <path d="M19.5722973,8.15100079 L11.4400913,0.5945262 C10.5867751,-0.197104471 9.3119413,-0.197104471 8.45862513,0.5945262 L0.346980976,8.15100079 C-0.0642557363,8.53139475 -0.0950984897,9.17909257 0.275014551,9.6006102 C0.645127592,10.0221278 1.27226358,10.0529706 1.68350029,9.67257662 L9.81570628,2.11610204 C9.90823454,2.03385469 10.0418865,2.03385469 10.1344147,2.11610204 L18.2666207,9.67257662 C18.4516772,9.84735223 18.6984193,9.93988049 18.9348804,9.93988049 C19.2021842,9.93988049 19.479769,9.82679039 19.6751065,9.6006102 C20.0143767,9.18937349 19.983534,8.53139475 19.5722973,8.15100079 Z" id="Shape" fill="#FF5C5C"></path>
                    <path d="M16.230999,9.51083291 C15.850605,9.51083291 15.5318966,9.82954136 15.5318966,10.2304972 L15.5318966,15.6485408 C15.5318966,15.8335974 15.3879637,15.9878111 15.2029072,15.9878111 L4.71637104,15.9878111 C4.53131452,15.9878111 4.38738167,15.8335974 4.38738167,15.6485408 L4.38738167,10.2304972 C4.38738167,9.82954136 4.07895414,9.51083291 3.68827926,9.51083291 C3.3078853,9.51083291 2.98917685,9.82954136 2.98917685,10.2304972 L2.98917685,15.6485408 C2.98917685,16.635509 3.76024569,17.4271396 4.71637104,17.4271396 L15.2029072,17.4271396 C16.1487516,17.4271396 16.9301014,16.625228 16.9301014,15.6485408 L16.9301014,10.2304972 C16.9198205,9.82954136 16.6113929,9.51083291 16.230999,9.51083291 Z" id="Shape" stroke="#FF5C5C" stroke-width="0.5" fill="#FF4955"></path>
                    <path d="M9.95963913,8.18184354 C7.75952272,4.62464598 3.8836167,9.89875682 9.95963913,13.507359 C16.0356616,9.89875682 12.1597555,4.62464598 9.95963913,8.18184354 Z" id="Shape" fill="#FF5C5C"></path>
                </g>
            </g>
        </g>
    </g>
</svg>