<?xml version="1.0" encoding="UTF-8"?>
<svg width="44px" height="58px" viewBox="0 0 44 58" version="1.1" xmlns="http://www.w3.org/2000/svg" xmlns:xlink="http://www.w3.org/1999/xlink">
    <!-- Generator: Sketch 51.3 (57544) - http://www.bohemiancoding.com/sketch -->
    <title>师傅位置</title>
    <desc>Created with Sketch.</desc>
    <defs></defs>
    <g id="Page-1" stroke="none" stroke-width="1" fill="none" fill-rule="evenodd">
        <g id="师傅位置--copy" transform="translate(-141.000000, -288.000000)">
            <g id="师傅位置" transform="translate(141.000000, 288.000000)">
                <g id="轨迹点" transform="translate(12.365044, 39.596774)">
                    <ellipse id="Oval-2" fill="#FF5C5C" opacity="0.242012593" cx="9.13530287" cy="9.12319244" rx="9.13530287" ry="9.12319244"></ellipse>
                    <ellipse id="Oval-2" fill="#E02525" cx="9.55804398" cy="8.92954261" rx="4.00821199" ry="4.00289841"></ellipse>
                </g>
                <g id="Group-2" transform="translate(0.009956, 0.403226)">
                    <g id="登录页面-拾取坐标-copy-2" transform="translate(-0.000000, 0.000000)">
                        <path d="M21.8020713,0 C15.7542575,0 10.3020381,2.42387644 6.36983419,6.36530048 C-1.03397845,13.7460538 -2.09237843,25.501614 3.76614185,34.0476391 C6.15288345,37.5417568 9.5160734,40.3046646 13.4626728,41.9298646 L20.4192654,47.0731836 C21.1920815,47.8858402 22.4264565,47.8858402 23.1449216,47.1002948 L30.1028178,41.9298646 C34.0614321,40.3046646 37.4246221,37.5418134 39.8114204,34.0476391 C45.6698839,25.501614 44.6127875,13.7460538 37.22218,6.36530048 C33.2622054,2.42387644 27.8100428,0 21.8020713,0 Z" id="Shape" fill="#FF5C5C" fill-rule="nonzero"></path>
                        <ellipse id="Oval-3" fill="#FFFFFF" cx="21.7973119" cy="21.7684158" rx="18.9602592" ry="18.935124"></ellipse>
                    </g>
                    <g id="维修工人" transform="translate(11.990044, 8.596774)" fill="#FF5C5C" fill-rule="nonzero">
                        <path d="M13.7475675,25.0577951 L14.0162088,25.0308 C13.9621692,25.0063021 13.8722303,24.9659876 13.7533177,24.9146133 C13.7514247,24.9623539 13.7495079,25.0100813 13.7475675,25.0577951 Z M5.47865014,25.0578275 L5.89184186,25.0264223 L5.88625045,24.9146457 C5.68356221,24.9829382 5.56449083,25.0264223 5.56449083,25.0264223 L5.47865014,25.0578275 Z M15.4512923,5.41456084 C15.4512923,1.93903803 10.8106214,0.201422401 10.8106214,0.201422401 C10.1533778,-0.100422267 9.5009949,-0.0316680361 8.82878795,0.201422401 C8.82878795,0.201422401 4.18789465,1.72713762 4.18789465,5.41456084 C4.18789465,5.96582586 3.20688997,5.84749862 2.8822711,7.59130274 L16.7573606,7.59130274 C16.1666737,5.83544556 15.4512923,5.96582586 15.4512923,5.41456084 Z M3.94419224,17.6355109 C1.81596581,18.7350277 0,20.1688222 0,21.5895268 L0,22.3279705 C0,23.8510613 3.93987162,25.1609556 3.93987162,25.1609556 L5.47865014,24.9645752 L5.32622099,24.9686252 C5.32622099,24.9686252 4.04728366,17.5823414 3.94419224,17.6355109 Z" id="Shape"></path>
                        <path d="M14.1866693,22.773493 C13.7111462,23.2801099 13.0507574,23.4327171 12.414704,23.1855324 C11.7512018,22.927623 11.3392809,22.1977979 11.4628635,21.507534 C11.520779,21.1842077 11.6621524,20.905886 11.8879052,20.6655053 C12.8370452,19.6545072 13.7858041,18.643185 14.7347853,17.6321221 C14.1930549,17.3910611 13.6549145,17.1122533 13.1144549,16.9299995 C12.9713024,16.8827269 12.0720719,16.4702988 12.6343888,14.731452 L12.6267641,14.731452 C13.9494478,13.3465501 14.8796216,11.9930444 14.8796216,9 L5,9 C5,12.0243759 5.90701395,13.3654397 7.23849769,14.7484623 C7.81339521,16.2813057 6.78572142,16.8504559 6.57073846,16.9303883 C5.99126616,17.1435848 5.60364874,17.4011377 5.01455034,17.6759278 C4.90821843,17.725598 5.90739516,24.730688 5.99091668,25.3150341 C6.74032305,25.2269367 8.63704647,25.0201232 9.92433913,25.0201232 C11.2134744,25.0201232 13.1090541,25.2269367 13.8579522,25.3150341 C13.8896262,25.0998936 14.0490128,24.0145359 14.2308286,22.7263825 L14.1866693,22.773493 Z M17.6233149,19.1096251 C16.762494,20.0276277 15.901535,20.9454955 15.0404379,21.8632286 C14.7331333,23.6278987 14.4500051,25.3376174 14.4500051,25.3376174 L14.1209068,25.3465923 C14.1589347,25.3513228 14.1795847,25.3539473 14.1795847,25.3539473 L15.8162445,25.5661393 C15.8162445,25.5661393 19.7441073,24.2569578 19.7441073,22.7282941 L19.7441073,21.9898828 C19.7440438,20.9814119 18.8777899,19.9855448 17.6233149,19.1096251 Z" id="Shape"></path>
                        <path d="M19.2640718,13.1274925 L17.893353,14.5847127 L19.5300763,16.1203425 L20.9062595,14.6474404 C20.9224619,14.6790959 20.9317385,14.693903 20.9379017,14.7098765 C21.4623178,16.0707371 20.7233635,17.6373096 19.3312004,18.1182975 C18.8019872,18.3011021 18.2672143,18.3228754 17.7273265,18.1762623 C17.673827,18.161682 17.6499047,18.1830989 17.6194379,18.215532 C16.4281753,19.4862732 15.2365718,20.7566819 14.0446275,22.0267581 C13.6905267,22.4040315 13.1987377,22.5176283 12.725089,22.3335925 C12.2310126,22.1415213 11.9242799,21.5980649 12.0162521,21.0840606 C12.0594266,20.8432588 12.1646783,20.6360241 12.3327698,20.4570428 C13.5201161,19.192315 14.7062553,17.9265503 15.8947136,16.6628918 C15.9424629,16.6121523 15.9480543,16.5733039 15.9250851,16.509669 C15.4137579,15.0944725 16.2453515,13.5105332 17.7104253,13.1026088 C18.1958604,12.9674332 18.6804378,12.9659752 19.1657458,13.0972951 C19.1930674,13.1047148 19.2198807,13.1138842 19.2640718,13.1274925 Z M13.0165407,21.6970813 C13.1584225,21.6914436 13.2662476,21.5779764 13.2625623,21.4385239 C13.2587182,21.2956694 13.1417118,21.1861551 12.9984004,21.1912744 C12.8575671,21.1963289 12.7454531,21.3173454 12.75168,21.4577699 C12.7577797,21.5948572 12.8770734,21.7025894 13.0165407,21.6970813 Z" id="Shape"></path>
                    </g>
                </g>
            </g>
        </g>
    </g>
</svg>